<svg width="62" height="49" viewBox="0 0 62 49" fill="none" xmlns="http://www.w3.org/2000/svg">
<rect width="62" height="49" fill="black"/>
<g id="Home" clip-path="url(#clip0_0_1)">
<rect width="1440" height="2203" transform="translate(-116 -456)" fill="#1F1F1F"/>
<g id="Rectangle 1" filter="url(#filter0_d_0_1)">
<rect x="-57" y="-319" width="1323" height="588" rx="50" fill="#262626"/>
</g>
<g id="Group 28">
<g id="Group 6">
<path id="Rectangle 17" d="M-23 23.5C-23 -5.49495 0.505053 -29 29.5 -29C58.4949 -29 82 -5.49495 82 23.5C82 52.4949 58.4949 76 29.5 76C0.505053 76 -23 52.4949 -23 23.5Z" fill="#FECB03"/>
</g>
<g id="tags-solid 1" clip-path="url(#clip1_0_1)">
<path id="Vector" d="M48.238 21.6233L27.712 1.34549C26.8399 0.483994 25.6572 6.37073e-06 24.4239 0H4.65C2.08184 0 0 2.05666 0 4.59375V24.1285C6.44874e-06 25.3468 0.48992 26.5152 1.36197 27.3767L21.888 47.6545C23.7039 49.4485 26.6481 49.4486 28.4641 47.6545L48.238 28.1198C50.054 26.3258 50.054 23.4172 48.238 21.6233ZM10.85 15.3125C8.28184 15.3125 6.2 13.2558 6.2 10.7188C6.2 8.18166 8.28184 6.125 10.85 6.125C13.4182 6.125 15.5 8.18166 15.5 10.7188C15.5 13.2558 13.4182 15.3125 10.85 15.3125ZM60.638 28.1198L40.8641 47.6545C39.0482 49.4485 36.104 49.4485 34.288 47.6545L34.2532 47.6201L51.1151 30.9621C52.7619 29.3352 53.6688 27.1722 53.6688 24.8715C53.6688 22.5708 52.7618 20.4078 51.1151 18.781L32.1041 0H36.8239C38.0572 6.37073e-06 39.2399 0.483994 40.112 1.34549L60.638 21.6233C62.454 23.4172 62.454 26.3258 60.638 28.1198Z" fill="#262626"/>
</g>
</g>
</g>
<defs>
<filter id="filter0_d_0_1" x="-61" y="-319" width="1331" height="596" filterUnits="userSpaceOnUse" color-interpolation-filters="sRGB">
<feFlood flood-opacity="0" result="BackgroundImageFix"/>
<feColorMatrix in="SourceAlpha" type="matrix" values="0 0 0 0 0 0 0 0 0 0 0 0 0 0 0 0 0 0 127 0" result="hardAlpha"/>
<feOffset dy="4"/>
<feGaussianBlur stdDeviation="2"/>
<feComposite in2="hardAlpha" operator="out"/>
<feColorMatrix type="matrix" values="0 0 0 0 0 0 0 0 0 0 0 0 0 0 0 0 0 0 0.25 0"/>
<feBlend mode="normal" in2="BackgroundImageFix" result="effect1_dropShadow_0_1"/>
<feBlend mode="normal" in="SourceGraphic" in2="effect1_dropShadow_0_1" result="shape"/>
</filter>
<clipPath id="clip0_0_1">
<rect width="1440" height="2203" fill="white" transform="translate(-116 -456)"/>
</clipPath>
<clipPath id="clip1_0_1">
<rect width="62" height="49" fill="white"/>
</clipPath>
</defs>
</svg>
